<svg width="169" height="85" viewBox="0 0 169 85" fill="none" xmlns="http://www.w3.org/2000/svg">
<path fill-rule="evenodd" clip-rule="evenodd" d="M6.2532 52.2828C2.75436 60.7298 0.65136 69.6753 0.0136855 78.7699C-0.215327 82.0362 2.46058 84.6937 5.73483 84.6937V84.6937C9.00908 84.6937 11.6382 82.0301 11.9011 78.7664C14.9176 41.312 46.269 11.8571 84.5 11.8571C122.731 11.8571 154.082 41.312 157.099 78.7664C157.362 82.0301 159.991 84.6937 163.265 84.6937V84.6937C166.539 84.6937 169.215 82.0362 168.986 78.7699C168.349 69.6753 166.246 60.7298 162.747 52.2829C158.491 42.0073 152.252 32.6708 144.388 24.8062C136.523 16.9417 127.186 10.7032 116.911 6.44693C106.635 2.19067 95.6222 1.46031e-06 84.5 0C73.3779 -1.46031e-06 62.3646 2.19067 52.0891 6.44692C41.8136 10.7032 32.477 16.9417 24.6125 24.8062C16.748 32.6708 10.5095 42.0073 6.2532 52.2828Z" fill="#003566"/>
<path fill-rule="evenodd" clip-rule="evenodd" d="M28.9786 37.5475C31.0992 35.0527 31.1199 31.3136 28.8046 28.9983V28.9983C26.4894 26.6831 22.718 26.6701 20.5704 29.1416C14.5904 36.0234 9.75203 43.8359 6.25319 52.2828C2.75434 60.7298 0.651345 69.6753 0.0136703 78.7699C-0.215342 82.0362 2.46056 84.6937 5.73481 84.6937V84.6937C9.00907 84.6937 11.6381 82.0344 11.9007 78.7707C13.1612 63.1079 19.3768 48.8439 28.9786 37.5475Z" fill="url(#paint0_angular_114_11)"/>
<defs>
<radialGradient id="paint0_angular_114_11" cx="0" cy="0" r="1" gradientUnits="userSpaceOnUse" gradientTransform="translate(84.5969 45.5229) rotate(89.6899) scale(74.4782 114.051)">
<stop stop-color="#FFC300"/>
<stop offset="0.9999" stop-color="#FFD400"/>
<stop offset="1"/>
</radialGradient>
</defs>
</svg>
