<svg width="169" height="85" viewBox="0 0 169 85" fill="none" xmlns="http://www.w3.org/2000/svg">
<path fill-rule="evenodd" clip-rule="evenodd" d="M6.2532 52.2828C2.75436 60.7298 0.65136 69.6753 0.0136855 78.7699C-0.215327 82.0362 2.46058 84.6937 5.73483 84.6937V84.6937C9.00908 84.6937 11.6382 82.0301 11.9011 78.7664C14.9176 41.312 46.269 11.8571 84.5 11.8571C122.731 11.8571 154.082 41.312 157.099 78.7664C157.362 82.0301 159.991 84.6937 163.265 84.6937V84.6937C166.539 84.6937 169.215 82.0362 168.986 78.7699C168.349 69.6753 166.246 60.7298 162.747 52.2829C158.491 42.0073 152.252 32.6708 144.388 24.8062C136.523 16.9417 127.186 10.7032 116.911 6.44693C106.635 2.19067 95.6222 1.46031e-06 84.5 0C73.3779 -1.46031e-06 62.3646 2.19067 52.0891 6.44692C41.8136 10.7032 32.477 16.9417 24.6125 24.8062C16.748 32.6708 10.5095 42.0073 6.2532 52.2828Z" fill="#003566"/>
<path fill-rule="evenodd" clip-rule="evenodd" d="M24.6125 24.8062C10.1315 39.2872 1.43598 58.4721 0.0135319 78.7695C-0.215367 82.0358 2.46056 84.6937 5.73481 84.6937V84.6937C9.00907 84.6937 11.6382 82.0301 11.9011 78.7664C14.7601 43.267 43.0733 14.9538 78.5726 12.0948C81.8363 11.832 84.5 9.20282 84.5 5.92856V5.92856C84.5 2.65431 81.842 -0.0216216 78.5758 0.207277C58.2784 1.62972 39.0934 10.3252 24.6125 24.8062Z" fill="url(#paint0_angular_114_11)"/>
<defs>
<radialGradient id="paint0_angular_114_11" cx="0" cy="0" r="1" gradientUnits="userSpaceOnUse" gradientTransform="translate(84.5969 45.5229) rotate(89.6899) scale(74.4782 114.051)">
<stop stop-color="#FFC300"/>
<stop offset="0.9999" stop-color="#FFD400"/>
<stop offset="1"/>
</radialGradient>
</defs>
</svg>
